<svg xmlns="http://www.w3.org/2000/svg"
     width="256" height="256" viewBox="0 0 16 16">
  <defs>
    <filter id="blackshadow" width="16" height="16">
      <feDropShadow flood-color="#000000"
                    dx="1" dy="1" stdDeviation="0" />
    </filter>
  </defs>
  <!-- background -->
  <path fill="#336633"
        d="M1 0h14a1 1 0 011 1v14a1 1 0 01-1 1h-14a1 1 0 01-1-1v-14a1 1 0 011-1" />
  <!-- b -->
  <path fill="#ffffff" fill-rule="evenodd"
        filter="url(#blackshadow)"
        d="M1 1h4a1 1 0 011 1v1a1 1 0 011 1v3a1 1 0 01-1 1h-5z
           M3 3h1v1h-1z
           M3 5h2v1h-2z" />
  <!-- .js -->
  <g fill="#99ff99" filter="url(#blackshadow)">
    <!-- dot -->
    <circle cx="4" cy="14" r="1" />
    <!-- j -->
    <path d="M7 8h3v6a1 1 0 01-1 1h-3v-2h2v-3h-1z" />
    <!-- s -->
    <path d="M15 8v2h-2v1h1a1 1 0 011 1v2a1 1 0 01-1 1h-3v-2h2v-1h-1a1 1 0 01-1-1v-2a1 1 0 011-1z"/>
  </g>
</svg>
